<mxfile host="Electron" agent="Mozilla/5.0 (Windows NT 10.0; Win64; x64) AppleWebKit/537.36 (KHTML, like Gecko) draw.io/24.7.8 Chrome/128.0.6613.36 Electron/32.0.1 Safari/537.36" version="24.7.8">
  <diagram name="Page-1" id="_KRcMYV2PXa-DpST6em6">
    <mxGraphModel dx="887" dy="1010" grid="1" gridSize="10" guides="1" tooltips="1" connect="1" arrows="1" fold="1" page="1" pageScale="1" pageWidth="850" pageHeight="1100" math="0" shadow="0">
      <root>
        <mxCell id="0" />
        <mxCell id="1" parent="0" />
        <mxCell id="lI1zKowDiSnj5OJPUs0b-1" value="Start" style="rounded=1;whiteSpace=wrap;html=1;" vertex="1" parent="1">
          <mxGeometry x="285" y="50" width="120" height="60" as="geometry" />
        </mxCell>
        <mxCell id="lI1zKowDiSnj5OJPUs0b-2" value="city_count: (int)" style="rounded=0;whiteSpace=wrap;html=1;" vertex="1" parent="1">
          <mxGeometry x="285" y="160" width="120" height="60" as="geometry" />
        </mxCell>
        <mxCell id="lI1zKowDiSnj5OJPUs0b-3" value="loop_count: (int)" style="rounded=0;whiteSpace=wrap;html=1;" vertex="1" parent="1">
          <mxGeometry x="285" y="270" width="120" height="60" as="geometry" />
        </mxCell>
        <mxCell id="lI1zKowDiSnj5OJPUs0b-14" style="edgeStyle=orthogonalEdgeStyle;rounded=0;orthogonalLoop=1;jettySize=auto;html=1;entryX=1;entryY=0.5;entryDx=0;entryDy=0;" edge="1" parent="1" source="lI1zKowDiSnj5OJPUs0b-4" target="lI1zKowDiSnj5OJPUs0b-13">
          <mxGeometry relative="1" as="geometry" />
        </mxCell>
        <mxCell id="lI1zKowDiSnj5OJPUs0b-19" value="no" style="edgeLabel;html=1;align=center;verticalAlign=middle;resizable=0;points=[];" vertex="1" connectable="0" parent="lI1zKowDiSnj5OJPUs0b-14">
          <mxGeometry x="0.0747" y="-3" relative="1" as="geometry">
            <mxPoint as="offset" />
          </mxGeometry>
        </mxCell>
        <mxCell id="lI1zKowDiSnj5OJPUs0b-17" value="" style="edgeStyle=orthogonalEdgeStyle;rounded=0;orthogonalLoop=1;jettySize=auto;html=1;" edge="1" parent="1" source="lI1zKowDiSnj5OJPUs0b-4" target="lI1zKowDiSnj5OJPUs0b-16">
          <mxGeometry relative="1" as="geometry" />
        </mxCell>
        <mxCell id="lI1zKowDiSnj5OJPUs0b-18" value="yes" style="edgeLabel;html=1;align=center;verticalAlign=middle;resizable=0;points=[];" vertex="1" connectable="0" parent="lI1zKowDiSnj5OJPUs0b-17">
          <mxGeometry x="-0.2627" y="-1" relative="1" as="geometry">
            <mxPoint as="offset" />
          </mxGeometry>
        </mxCell>
        <mxCell id="lI1zKowDiSnj5OJPUs0b-4" value="while count != 5" style="ellipse;whiteSpace=wrap;html=1;aspect=fixed;" vertex="1" parent="1">
          <mxGeometry x="305" y="370" width="80" height="80" as="geometry" />
        </mxCell>
        <mxCell id="lI1zKowDiSnj5OJPUs0b-12" style="edgeStyle=orthogonalEdgeStyle;rounded=0;orthogonalLoop=1;jettySize=auto;html=1;entryX=0.5;entryY=0;entryDx=0;entryDy=0;" edge="1" parent="1" source="lI1zKowDiSnj5OJPUs0b-5" target="lI1zKowDiSnj5OJPUs0b-11">
          <mxGeometry relative="1" as="geometry" />
        </mxCell>
        <mxCell id="lI1zKowDiSnj5OJPUs0b-5" value="temperature_average" style="shape=document;whiteSpace=wrap;html=1;boundedLbl=1;" vertex="1" parent="1">
          <mxGeometry x="20" y="530" width="120" height="80" as="geometry" />
        </mxCell>
        <mxCell id="lI1zKowDiSnj5OJPUs0b-11" value="End" style="rounded=1;whiteSpace=wrap;html=1;" vertex="1" parent="1">
          <mxGeometry x="20" y="700" width="120" height="60" as="geometry" />
        </mxCell>
        <mxCell id="lI1zKowDiSnj5OJPUs0b-15" value="" style="edgeStyle=orthogonalEdgeStyle;rounded=0;orthogonalLoop=1;jettySize=auto;html=1;" edge="1" parent="1" source="lI1zKowDiSnj5OJPUs0b-13" target="lI1zKowDiSnj5OJPUs0b-5">
          <mxGeometry relative="1" as="geometry" />
        </mxCell>
        <mxCell id="lI1zKowDiSnj5OJPUs0b-13" value="city_count / 5" style="rounded=0;whiteSpace=wrap;html=1;" vertex="1" parent="1">
          <mxGeometry x="20" y="380" width="120" height="60" as="geometry" />
        </mxCell>
        <mxCell id="lI1zKowDiSnj5OJPUs0b-24" value="" style="edgeStyle=orthogonalEdgeStyle;rounded=0;orthogonalLoop=1;jettySize=auto;html=1;" edge="1" parent="1" source="lI1zKowDiSnj5OJPUs0b-16" target="lI1zKowDiSnj5OJPUs0b-21">
          <mxGeometry relative="1" as="geometry" />
        </mxCell>
        <mxCell id="lI1zKowDiSnj5OJPUs0b-25" value="yes" style="edgeLabel;html=1;align=center;verticalAlign=middle;resizable=0;points=[];" vertex="1" connectable="0" parent="lI1zKowDiSnj5OJPUs0b-24">
          <mxGeometry x="-0.3267" y="4" relative="1" as="geometry">
            <mxPoint as="offset" />
          </mxGeometry>
        </mxCell>
        <mxCell id="lI1zKowDiSnj5OJPUs0b-34" value="" style="edgeStyle=orthogonalEdgeStyle;rounded=0;orthogonalLoop=1;jettySize=auto;html=1;" edge="1" parent="1" source="lI1zKowDiSnj5OJPUs0b-16" target="lI1zKowDiSnj5OJPUs0b-26">
          <mxGeometry relative="1" as="geometry" />
        </mxCell>
        <mxCell id="lI1zKowDiSnj5OJPUs0b-35" value="no" style="edgeLabel;html=1;align=center;verticalAlign=middle;resizable=0;points=[];" vertex="1" connectable="0" parent="lI1zKowDiSnj5OJPUs0b-34">
          <mxGeometry x="-0.0857" y="1" relative="1" as="geometry">
            <mxPoint as="offset" />
          </mxGeometry>
        </mxCell>
        <mxCell id="lI1zKowDiSnj5OJPUs0b-16" value="-50 &amp;lt;&amp;nbsp;temperature &amp;lt; 40" style="rhombus;whiteSpace=wrap;html=1;" vertex="1" parent="1">
          <mxGeometry x="480" y="360" width="100" height="100" as="geometry" />
        </mxCell>
        <mxCell id="lI1zKowDiSnj5OJPUs0b-21" value="registered to data" style="shape=document;whiteSpace=wrap;html=1;boundedLbl=1;" vertex="1" parent="1">
          <mxGeometry x="680" y="370" width="120" height="80" as="geometry" />
        </mxCell>
        <mxCell id="lI1zKowDiSnj5OJPUs0b-22" value="city_count +=&amp;nbsp;temperature" style="rounded=0;whiteSpace=wrap;html=1;" vertex="1" parent="1">
          <mxGeometry x="680" y="570" width="120" height="60" as="geometry" />
        </mxCell>
        <mxCell id="lI1zKowDiSnj5OJPUs0b-23" value="count += 1" style="rounded=0;whiteSpace=wrap;html=1;" vertex="1" parent="1">
          <mxGeometry x="680" y="480" width="120" height="60" as="geometry" />
        </mxCell>
        <mxCell id="lI1zKowDiSnj5OJPUs0b-26" value="Try again" style="shape=document;whiteSpace=wrap;html=1;boundedLbl=1;" vertex="1" parent="1">
          <mxGeometry x="470" y="530" width="120" height="80" as="geometry" />
        </mxCell>
        <mxCell id="lI1zKowDiSnj5OJPUs0b-29" value="" style="endArrow=none;html=1;rounded=0;" edge="1" parent="1">
          <mxGeometry width="50" height="50" relative="1" as="geometry">
            <mxPoint x="490" y="640" as="sourcePoint" />
            <mxPoint x="550" y="640" as="targetPoint" />
          </mxGeometry>
        </mxCell>
        <mxCell id="lI1zKowDiSnj5OJPUs0b-30" value="" style="endArrow=none;html=1;rounded=0;" edge="1" parent="1">
          <mxGeometry width="50" height="50" relative="1" as="geometry">
            <mxPoint x="480" y="660" as="sourcePoint" />
            <mxPoint x="570" y="660" as="targetPoint" />
          </mxGeometry>
        </mxCell>
        <mxCell id="lI1zKowDiSnj5OJPUs0b-32" value="" style="endArrow=none;html=1;rounded=0;" edge="1" parent="1">
          <mxGeometry width="50" height="50" relative="1" as="geometry">
            <mxPoint x="720" y="660" as="sourcePoint" />
            <mxPoint x="800" y="660" as="targetPoint" />
            <Array as="points">
              <mxPoint x="760" y="660" />
            </Array>
          </mxGeometry>
        </mxCell>
        <mxCell id="lI1zKowDiSnj5OJPUs0b-33" value="" style="endArrow=none;html=1;rounded=0;" edge="1" parent="1">
          <mxGeometry width="50" height="50" relative="1" as="geometry">
            <mxPoint x="700" y="670" as="sourcePoint" />
            <mxPoint x="810" y="670" as="targetPoint" />
            <Array as="points">
              <mxPoint x="770" y="670" />
            </Array>
          </mxGeometry>
        </mxCell>
        <mxCell id="lI1zKowDiSnj5OJPUs0b-36" value="" style="endArrow=classic;html=1;rounded=0;entryX=0.5;entryY=1;entryDx=0;entryDy=0;" edge="1" parent="1" target="lI1zKowDiSnj5OJPUs0b-4">
          <mxGeometry width="50" height="50" relative="1" as="geometry">
            <mxPoint x="460" y="660" as="sourcePoint" />
            <mxPoint x="345" y="440" as="targetPoint" />
            <Array as="points">
              <mxPoint x="410" y="660" />
              <mxPoint x="345" y="660" />
            </Array>
          </mxGeometry>
        </mxCell>
        <mxCell id="lI1zKowDiSnj5OJPUs0b-38" value="" style="endArrow=classic;html=1;rounded=0;entryX=0.5;entryY=1;entryDx=0;entryDy=0;" edge="1" parent="1" target="lI1zKowDiSnj5OJPUs0b-4">
          <mxGeometry width="50" height="50" relative="1" as="geometry">
            <mxPoint x="750" y="710" as="sourcePoint" />
            <mxPoint x="470" y="500" as="targetPoint" />
            <Array as="points">
              <mxPoint x="750" y="770" />
              <mxPoint x="345" y="770" />
            </Array>
          </mxGeometry>
        </mxCell>
      </root>
    </mxGraphModel>
  </diagram>
</mxfile>
